HIERARCHY
ROOT Hips
{
 OFFSET 0.000000 0.000000 0.000000
 CHANNELS 6 Xposition Yposition Zposition Yrotation Xrotation Zrotation
 JOINT Chest
 {
  OFFSET 0.000000 9.585900 0.002600
  CHANNELS 3 Yrotation Xrotation Zrotation
  JOINT Chest2
  {
   OFFSET 0.000000 9.601200 -0.005300
   CHANNELS 3 Yrotation Xrotation Zrotation
   JOINT Chest3
   {
    OFFSET 0.000000 9.561800 0.000000
    CHANNELS 3 Yrotation Xrotation Zrotation
    JOINT Chest4
    {
     OFFSET 0.000000 9.552100 0.000000
     CHANNELS 3 Yrotation Xrotation Zrotation
     JOINT Neck
     {
      OFFSET 0.000000 14.453000 0.000000
      CHANNELS 3 Yrotation Xrotation Zrotation
      JOINT Head
      {
       OFFSET 0.000000 8.936500 -0.011300
       CHANNELS 3 Yrotation Xrotation Zrotation
       End Site
       {
        OFFSET 0.000000 17.073600 -0.006000
       }
      }
     }
     JOINT RightCollar
     {
      OFFSET -2.921100 9.558500 0.000000
      CHANNELS 3 Yrotation Xrotation Zrotation
      JOINT RightShoulder
      {
       OFFSET -13.519700 0.000000 0.000000
       CHANNELS 3 Yrotation Xrotation Zrotation
       JOINT RightElbow
       {
        OFFSET 0.000000 -29.696600 0.000000
        CHANNELS 3 Yrotation Xrotation Zrotation
        JOINT RightWrist
        {
         OFFSET 0.000000 -24.004700 0.000000
         CHANNELS 3 Yrotation Xrotation Zrotation
         End Site
         {
          OFFSET 0.000000 -17.728500 0.000000
         }
        }
       }
      }
     }
     JOINT LeftCollar
     {
      OFFSET 2.921100 9.558500 0.000000
      CHANNELS 3 Yrotation Xrotation Zrotation
      JOINT LeftShoulder
      {
       OFFSET 13.519700 0.000000 0.000000
       CHANNELS 3 Yrotation Xrotation Zrotation
       JOINT LeftElbow
       {
        OFFSET 0.000000 -29.696600 0.000000
        CHANNELS 3 Yrotation Xrotation Zrotation
        JOINT LeftWrist
        {
         OFFSET 0.000000 -24.004700 0.000000
         CHANNELS 3 Yrotation Xrotation Zrotation
         End Site
         {
          OFFSET 0.000000 -17.728500 0.000000
         }
        }
       }
      }
     }
    }
   }
  }
 }
 JOINT RightHip
 {
  OFFSET -7.771700 -0.012900 -0.001300
  CHANNELS 3 Yrotation Xrotation Zrotation
  JOINT RightKnee
  {
   OFFSET 0.000000 -40.869800 0.001200
   CHANNELS 3 Yrotation Xrotation Zrotation
   JOINT RightAnkle
   {
    OFFSET 0.000000 -39.717900 0.002100
    CHANNELS 3 Yrotation Xrotation Zrotation
    JOINT RightToe
    {
     OFFSET 0.000000 -4.965400 11.033500
     CHANNELS 3 Yrotation Xrotation Zrotation
     End Site
     {
      OFFSET 0.000000 -1.423100 5.872300
     }
    }
   }
  }
 }
 JOINT LeftHip
 {
  OFFSET 7.771700 -0.012900 -0.001300
  CHANNELS 3 Yrotation Xrotation Zrotation
  JOINT LeftKnee
  {
   OFFSET 0.000000 -40.869800 0.001200
   CHANNELS 3 Yrotation Xrotation Zrotation
   JOINT LeftAnkle
   {
    OFFSET 0.000000 -39.717900 0.002100
    CHANNELS 3 Yrotation Xrotation Zrotation
    JOINT LeftToe
    {
     OFFSET 0.000000 -4.965400 11.033500
     CHANNELS 3 Yrotation Xrotation Zrotation
     End Site
     {
      OFFSET 0.000000 -1.423100 5.872300
     }
    }
   }
  }
 }
}
MOTION
Frames: 5
Frame Time: 0.008333
0.000000 85.388000 0.000000 0.000000 -5.767877 0.000000 0.000000 11.653817 0.000000 0.000000 -5.885947 0.000000 0.000000 -0.000000 0.000000 0.000000 -0.000000 0.000000 0.000000 12.528835 0.000000 0.000000 0.711642 0.000000 0.000000 -0.000000 0.000000 0.000000 0.000000 -90.000000 0.000000 -2.309062 0.000000 0.000000 2.309062 0.000000 0.000000 -0.000000 0.000000 0.000000 -0.000000 90.000000 0.000000 -2.309062 0.000000 0.000000 2.309062 0.000000 0.000000 8.520406 0.000000 0.000000 1.905762 0.000000 -0.000000 -4.658285 0.000000 0.000000 -0.000000 0.000000 0.000000 8.520406 0.000000 0.000000 1.905762 0.000000 -0.000000 -4.658285 0.000000 0.000000 -0.000000 0.000000
-90.697706 62.112509 18.080108 173.226875 -48.334273 -0.623875 4.122030 26.327098 2.080961 0.551934 4.391869 0.309619 0.894466 6.952059 0.538662 3.079768 21.395199 2.091132 4.537357 16.041177 1.213829 7.726996 -5.964220 0.502725 4.112745 8.675068 4.647685 -14.475957 -16.500643 -13.739607 -144.258096 -59.972139 165.359958 4.508055 -12.717752 -1.648434 -8.002601 4.771435 0.544076 6.464163 -9.583100 10.044049 169.527099 -67.086400 -178.760089 7.217022 -12.949070 -2.164177 3.129523 -18.979572 -3.722355 -1.982086 60.815619 -5.305087 2.305170 -6.167226 10.042106 0.246075 -0.528761 0.123416 -3.472187 -15.064629 4.783555 29.808113 75.797869 32.067409 1.525413 -11.732640 -5.658694 0.267074 0.818743 0.125473
-90.711296 62.109155 18.094405 173.265108 -48.289086 -0.595729 4.060845 26.377323 1.939367 0.557856 4.394057 0.318319 0.899983 6.981315 0.527072 3.085491 21.433620 2.051795 4.487286 15.863948 1.229039 7.634795 -6.283289 0.553356 4.168340 8.536506 4.688893 -14.111432 -16.379698 -13.960614 -144.083770 -59.824401 165.430687 4.567023 -12.726786 -1.834007 -7.936038 4.660298 0.616398 6.037782 -9.502035 10.112588 168.225054 -66.973539 -177.884600 7.268570 -12.920214 -2.178775 3.130023 -19.020485 -3.769263 -2.001959 60.796797 -5.341704 2.250409 -6.149898 10.040492 0.296782 -0.529305 0.144641 -3.480192 -15.110872 4.724102 29.774982 75.743708 32.026803 1.490897 -11.718592 -5.665830 0.280348 0.848087 0.143743
-90.713537 62.104785 18.112941 173.220837 -48.227213 -0.577453 4.083931 26.388266 1.900011 0.561319 4.411503 0.311979 0.905129 7.007320 0.517120 3.091375 21.467528 2.018187 4.431205 15.705413 1.228852 7.530774 -6.585545 0.593074 4.213404 8.379157 4.749794 -13.733645 -16.217997 -14.198167 -143.702868 -59.703182 165.340795 4.628046 -12.677706 -1.967668 -7.861196 4.544583 0.679080 5.615910 -9.418917 10.157723 166.803082 -66.919992 -176.949198 7.311174 -12.869836 -2.195205 3.156097 -19.081701 -3.740437 -2.020368 60.758439 -5.380879 2.249640 -6.138692 10.056289 0.294828 -0.526308 0.141024 -3.453601 -15.171496 4.741226 29.739764 75.718598 31.992685 1.493398 -11.709946 -5.669465 0.274858 0.862680 0.144064
-90.716095 62.107576 18.125933 173.193872 -48.214286 -0.566533 4.090215 26.441667 1.866978 0.572815 4.388836 0.323833 0.897951 7.065750 0.493956 3.095128 21.495164 1.992222 4.287106 15.563842 1.182304 7.493678 -6.852538 0.629393 4.286050 8.216702 4.721078 -13.392326 -15.994670 -14.334770 -143.140755 -59.620128 165.096598 4.697249 -12.571260 -2.020620 -7.783772 4.423342 0.718806 5.200863 -9.315152 10.193183 165.346185 -66.920522 -176.017361 7.339683 -12.809566 -2.217005 3.169944 -19.093890 -3.721256 -2.031602 60.738078 -5.402159 2.243278 -6.130690 10.057016 0.302009 -0.526175 0.145471 -3.433985 -15.179690 4.745164 29.719756 75.698424 31.975739 1.506443 -11.700689 -5.676160 0.273194 0.867326 0.144524
